<svg xmlns="http://www.w3.org/2000/svg" x="0px" y="0px"
viewBox="0 0 172 172"
style=" fill:#000000;"><g fill="none" fill-rule="nonzero" stroke="none" stroke-width="1" stroke-linecap="butt" stroke-linejoin="miter" stroke-miterlimit="10" stroke-dasharray="" stroke-dashoffset="0" font-family="none" font-weight="none" font-size="none" text-anchor="none" style="mix-blend-mode: normal"><path d="M0,172v-172h172v172z" fill="none"></path><g fill="#f27a36"><path d="M83.3125,10.75c-16.83887,0 -31.80908,10.58203 -37.66699,26.11914c-0.06299,0.10498 -0.14697,0.18897 -0.19946,0.30444c-0.09448,0.28345 -0.15747,0.5669 -0.26245,0.83984c-5.31201,-0.82934 -10.54004,-0.30444 -15.54761,1.58521c-13.17505,4.95508 -21.83594,17.39526 -21.56299,30.94824c0.30445,15.11719 11.2749,27.77783 25.56274,30.84326c0.06299,0.02099 0.12598,0.06299 0.19946,0.08398c0.12598,0.03149 0.26245,0.03149 0.39892,0.06299c0.47241,0.08398 0.96582,0.14697 1.44873,0.20996c0.5144,0.08398 1.02881,0.17847 1.55371,0.22046c0.04199,0.0105 0.09448,0.021 0.14697,0.03149l-4.58765,50.46411c-0.19946,2.24658 0.5564,4.49316 2.06811,6.16235c1.53272,1.66919 3.69531,2.62451 5.95239,2.62451h84.99219c2.25708,0 4.41968,-0.95532 5.95239,-2.62451c1.52222,-1.66919 2.26758,-3.91577 2.06811,-6.16235l-4.58765,-50.47461c0.04199,-0.0105 0.09448,-0.0105 0.13647,-0.021c0.95532,-0.08398 1.90015,-0.22046 2.83447,-0.38843c0.03149,-0.0105 0.06299,-0.02099 0.09448,-0.03149c1.72168,-0.31494 3.42236,-0.77685 5.09155,-1.38574c0.06299,-0.02099 0.11548,-0.07348 0.17847,-0.10498c12.03076,-4.54565 20.75464,-16.10401 20.9856,-29.62549c0.23096,-13.53198 -8.45093,-25.93017 -21.60498,-30.85376c-5.00757,-1.86865 -10.2251,-2.38306 -15.53711,-1.56421c-5.53247,-16.16699 -20.85962,-27.26343 -38.10791,-27.26343zM83.3125,16.125c15.67358,0 29.52051,10.57153 33.66724,25.69922c0.37793,1.39624 1.78467,2.23608 3.2019,1.91065c5.18604,-1.21777 10.05713,-0.93433 14.89673,0.87134c11.19092,4.19922 18.2981,14.29834 18.10913,25.73071c-0.19946,11.61084 -7.90503,21.46851 -18.39258,24.99585c-0.69287,0.23096 -1.37524,0.43042 -2.08911,0.60889c-0.30444,0.07349 -0.60889,0.16797 -0.92383,0.23096c-1.0603,0.22046 -2.1416,0.36743 -3.2334,0.46191c-0.24145,0.021 -0.48291,0.03149 -0.73486,0.04199c-2.30957,0.12598 -4.64014,-0.0105 -6.91821,-0.47241c-1.45923,-0.29395 -2.87646,0.65088 -3.17041,2.09961c-0.29395,1.44873 0.64038,2.87647 2.09961,3.17041c1.32275,0.27295 2.6665,0.41992 4.02075,0.5249l4.62964,50.94702c0.07348,0.75586 -0.16797,1.49072 -0.69287,2.04712c-0.5144,0.57739 -1.21777,0.88184 -1.97363,0.88184h-84.99219c-0.75586,0 -1.45923,-0.30444 -1.97363,-0.88184c-0.5249,-0.5564 -0.76636,-1.29126 -0.69287,-2.04712l1.69018,-18.57104h56.90991c1.48022,0 2.6875,-1.19678 2.6875,-2.6875c0,-1.49072 -1.20728,-2.6875 -2.6875,-2.6875h-56.427l2.45654,-26.97998c2.94995,-0.22046 5.83691,-0.83984 8.6189,-1.85816c1.38574,-0.50391 2.11011,-2.04712 1.5957,-3.44336c-0.5144,-1.39624 -2.05762,-2.11011 -3.44336,-1.6062c-3.31738,1.21777 -6.88672,1.73218 -10.43506,1.57471c-0.29395,-0.0105 -0.59839,-0.021 -0.89234,-0.04199c-0.98682,-0.07349 -1.96313,-0.20996 -2.92895,-0.38843c-12.17773,-2.34106 -21.59448,-13.02808 -21.85693,-25.8252c-0.23096,-11.45337 6.86572,-21.57348 18.08814,-25.8042c2.88696,-1.0918 5.79492,-1.6272 8.77637,-1.6272c1.14429,0 2.30957,0.09448 3.47485,0.25195c-0.49341,2.56152 -0.77686,5.16504 -0.77686,7.81055c0,0.96582 0.03149,1.93164 0.09448,2.88696c0.10498,1.40674 1.29126,2.48804 2.6875,2.48804c0.06299,0 0.12598,0 0.19946,0c1.48022,-0.10498 2.58252,-1.39624 2.47754,-2.86597c-0.05249,-0.82935 -0.08398,-1.66919 -0.08398,-2.50903c0,-3.08642 0.39893,-6.12036 1.18628,-9.05982c0.021,-0.06299 0.07349,-0.11548 0.08398,-0.17847c4.15723,-15.12768 17.99365,-25.69922 33.66724,-25.69922zM86.66138,24.39746c-1.48022,-0.20996 -2.81348,0.86084 -3.00244,2.33057c-0.17847,1.48022 0.87134,2.81348 2.34107,3.00244c3.47485,0.43042 6.82373,1.72168 9.6897,3.7478c0.47241,0.32544 1.00781,0.49341 1.55371,0.49341c0.83984,0 1.66919,-0.39892 2.19409,-1.13379c0.85034,-1.21777 0.5669,-2.89746 -0.64038,-3.7478c-3.59033,-2.53003 -7.78955,-4.15723 -12.13574,-4.69263zM107.5,129c-1.48022,0 -2.6875,1.19678 -2.6875,2.6875c0,1.49072 1.20728,2.6875 2.6875,2.6875h10.75c1.48022,0 2.6875,-1.19678 2.6875,-2.6875c0,-1.49072 -1.20728,-2.6875 -2.6875,-2.6875zM48.375,139.75c-1.48022,0 -2.6875,1.19678 -2.6875,2.6875v5.375c0,1.49072 1.20728,2.6875 2.6875,2.6875c1.48022,0 2.6875,-1.19678 2.6875,-2.6875v-5.375c0,-1.49072 -1.20728,-2.6875 -2.6875,-2.6875zM61.8125,139.75c-1.48022,0 -2.6875,1.19678 -2.6875,2.6875v5.375c0,1.49072 1.20728,2.6875 2.6875,2.6875c1.48022,0 2.6875,-1.19678 2.6875,-2.6875v-5.375c0,-1.49072 -1.20728,-2.6875 -2.6875,-2.6875zM75.25,139.75c-1.48022,0 -2.6875,1.19678 -2.6875,2.6875v5.375c0,1.49072 1.20728,2.6875 2.6875,2.6875c1.48022,0 2.6875,-1.19678 2.6875,-2.6875v-5.375c0,-1.49072 -1.20728,-2.6875 -2.6875,-2.6875zM91.375,139.75c-1.48022,0 -2.6875,1.19678 -2.6875,2.6875v5.375c0,1.49072 1.20728,2.6875 2.6875,2.6875c1.48022,0 2.6875,-1.19678 2.6875,-2.6875v-5.375c0,-1.49072 -1.20728,-2.6875 -2.6875,-2.6875zM104.8125,139.75c-1.48022,0 -2.6875,1.19678 -2.6875,2.6875v5.375c0,1.49072 1.20728,2.6875 2.6875,2.6875c1.48022,0 2.6875,-1.19678 2.6875,-2.6875v-5.375c0,-1.49072 -1.20728,-2.6875 -2.6875,-2.6875zM118.25,139.75c-1.48022,0 -2.6875,1.19678 -2.6875,2.6875v5.375c0,1.49072 1.20728,2.6875 2.6875,2.6875c1.48022,0 2.6875,-1.19678 2.6875,-2.6875v-5.375c0,-1.49072 -1.20728,-2.6875 -2.6875,-2.6875z"></path></g></g></svg>
